<?xml version="1.0" encoding="utf-8"?>
<!-- Generator: Adobe Illustrator 21.0.0, SVG Export Plug-In . SVG Version: 6.00 Build 0)  -->
<svg version="1.1" id="Layer_1" xmlns="http://www.w3.org/2000/svg" xmlns:xlink="http://www.w3.org/1999/xlink" x="0px" y="0px"
	 viewBox="0 0 64 64" style="enable-background:new 0 0 64 64;" xml:space="preserve">
<style type="text/css">
	.st0{fill:#EAEAE6;}
</style>
<g>
	<g>
		<path d="M64,32c0,17.7-14.3,32-32,32C14.3,64,0,49.7,0,32C0,14.3,14.3,0,32,0C49.7,0,64,14.3,64,32z"/>
	</g>
	<g>
		<path class="st0" d="M21.7,22.9h4.5v-2.3c0-2.6,0.3-4.5,0.8-5.8c0.6-1.3,1.6-2.3,3-3.1c1.5-0.8,3.3-1.2,5.6-1.2
			c2.3,0,4.5,0.4,6.7,1l-1.1,5.6c-1.3-0.3-2.5-0.4-3.7-0.4c-1.2,0-2,0.3-2.5,0.8c-0.5,0.5-0.8,1.6-0.8,3.1v2.1h6v6.4h-6v24.2h-8.1
			V29.3h-4.5V22.9z"/>
	</g>
</g>
</svg>
