<?xml version="1.0" encoding="utf-8"?>
<!-- Generator: Adobe Illustrator 21.0.0, SVG Export Plug-In . SVG Version: 6.00 Build 0)  -->
<svg version="1.1" id="Layer_1" xmlns="http://www.w3.org/2000/svg" xmlns:xlink="http://www.w3.org/1999/xlink" x="0px" y="0px"
	 viewBox="0 0 64 64" style="enable-background:new 0 0 64 64;" xml:space="preserve">
<style type="text/css">
	.st0{fill-rule:evenodd;clip-rule:evenodd;fill:#FDFEFF;}
</style>
<g>
	<g>
		<path d="M64,32c0,17.7-14.3,32-32,32C14.3,64,0,49.7,0,32C0,14.3,14.3,0,32,0C49.7,0,64,14.3,64,32z"/>
	</g>
	<path class="st0" d="M44.8,14.6c-8.5,0-17.1,0-25.6,0c-3.1,0-4.6,1.6-4.6,4.7c0,4.2,0,8.5,0,12.8c0,4.2,0,8.5,0,12.8
		c0,2.9,1.6,4.5,4.5,4.5c8.6,0,17.2,0,25.8,0c3,0,4.6-1.6,4.6-4.6c0-8.5,0-17.1,0-25.6C49.4,16.2,47.8,14.6,44.8,14.6z M42,18.5
		c3.4,0,3.4,0,3.4,3.5c0,3.4,0,3.4-3.4,3.4c-3.4,0-3.4,0-3.4-3.4C38.6,18.5,38.6,18.5,42,18.5z M32,25.3c3.6,0,6.8,3.1,6.7,6.8
		c0,3.7-3.2,6.8-6.8,6.7c-3.7-0.1-6.8-3.2-6.7-6.8C25.3,28.3,28.4,25.3,32,25.3z M45.4,43.4c0,1.6-0.4,2.1-2.1,2.1
		c-3.8,0-7.6,0-11.4,0c-3.8,0-7.6,0-11.3,0c-1.6,0-2.1-0.5-2.1-2.1c0-4.2,0-8.5,0-12.7c0-1.2,0.4-1.5,1.5-1.4
		c1.6,0.1,1.6,0.1,1.4,1.6c-0.6,5.4,3.1,10.6,8.4,11.7c5.5,1.1,11-2.2,12.5-7.5c0.4-1.7,0.5-3.4,0.2-5c-0.1-0.6,0-0.7,0.6-0.7
		c2.4-0.2,2.4-0.2,2.4,2.2C45.4,35.5,45.4,39.5,45.4,43.4z"/>
</g>
</svg>
