<?xml version="1.0" encoding="utf-8"?>
<!-- Generator: Adobe Illustrator 21.0.0, SVG Export Plug-In . SVG Version: 6.00 Build 0)  -->
<svg version="1.1" id="Layer_1" xmlns="http://www.w3.org/2000/svg" xmlns:xlink="http://www.w3.org/1999/xlink" x="0px" y="0px"
	 viewBox="0 0 64 64" style="enable-background:new 0 0 64 64;" xml:space="preserve">
<g>
	<polygon points="11.4,21.8 24.2,30.9 13.5,42 26,32.3 31.2,36 31.8,36.4 32.3,36 37.4,32.1 49.6,42 39.7,31 51.6,21.7 31.7,33.2 	
		"/>
	<path d="M32,0C14.3,0,0,14.3,0,32c0,17.7,14.3,32,32,32c17.7,0,32-14.3,32-32C64,14.3,49.7,0,32,0z M53.4,41.1
		c0,1.8-1.5,3.3-3.3,3.3H13.9c-1.8,0-3.3-1.5-3.3-3.3V22.9c0-1.8,1.5-3.3,3.3-3.3h36.2c1.8,0,3.3,1.5,3.3,3.3V41.1z"/>
</g>
</svg>
