<?xml version="1.0" encoding="utf-8"?>
<!-- Generator: Adobe Illustrator 21.0.0, SVG Export Plug-In . SVG Version: 6.00 Build 0)  -->
<svg version="1.1" id="Layer_1" xmlns="http://www.w3.org/2000/svg" xmlns:xlink="http://www.w3.org/1999/xlink" x="0px" y="0px"
	 viewBox="0 0 64 64" style="enable-background:new 0 0 64 64;" xml:space="preserve">
<path d="M32,0.1c-17.7,0-32,14.3-32,32c0,17.7,14.3,32,32,32c17.7,0,32-14.3,32-32C64.1,14.4,49.7,0.1,32,0.1z M25.8,47.7
	c-1.7,3.9-4.7,5.9-7.4,4.3c0.5-0.5,5-4.9,5.6-12.1c0.5,0.1,1.4,0.6,1.4,0.6C28.1,41.9,27.6,43.7,25.8,47.7z M38.4,22.2
	C38.3,22.2,38.3,22.2,38.4,22.2C38.3,22.2,38.3,22.2,38.4,22.2c-0.1,0-0.1,0-0.1,0c0,0,0,0-0.1,0c0,0,0,0-0.1,0
	C37.3,20.9,35,22,35,22c-3.9,2.3-12.9,13.2-13.5,14.5c-0.5,1.1,0.2,2.2,0.7,2.5c0,0,0,0,0,0c0,0,0,0,0,0l0,0l0,0
	c-0.7,7.4-5.5,11.8-5.5,11.9l0,0c0,0,0,0,0,0c-2.6-1.9-4.8-6-4.7-8c0.1-2,5-9.3,5-9.3c4.1-6.3,10.8-12,12.8-13.9
	c2-1.9,9-7.3,12.1-7.9c2.7-0.6,7,3.1,8.3,4.5c0,0,0,0,0,0c0,0,0,0,0,0c0,0-0.1,0.1-0.1,0.1c0,0,0,0,0,0c0,0,0,0,0,0c0,0,0,0.1,0,0.1
	l0,0C46.8,20.4,38.5,22.2,38.4,22.2L38.4,22.2C38.4,22.2,38.4,22.2,38.4,22.2z M42.1,27c-1.5,0.3-2.3-1.1-2.9-2.8c0,0,0,0,0.1,0
	c0,0,0,0,0,0c0,0,0.1,0,0.1,0c0,0,0,0,0,0c0.4-0.1,8.6-1.8,11.8-5.9l0,0c0,0,0,0,0,0c0,0,0.1,0,0.1-0.1c0,0,0,0,0.1-0.1
	c0.7,1,0.8,3.5,0.8,3.5C50.1,24.6,43.7,26.7,42.1,27z"/>
</svg>
